<?xml version="1.0" encoding="UTF-8"?>
<svg version="1.1" xmlns="http://www.w3.org/2000/svg" width="48" height="48">
<path d="M0 0 C15.84 0 31.68 0 48 0 C48 15.84 48 31.68 48 48 C32.16 48 16.32 48 0 48 C0 32.16 0 16.32 0 0 Z " fill="#050505" transform="translate(0,0)"/>
<path d="M0 0 C2.37989915 1.46039266 3.99406622 2.99406622 6 5 C6 5.66 6 6.32 6 7 C3.03824877 6.38722388 1.61941217 5.74627478 -1 4 C-4.11304814 4.15760028 -4.11304814 4.15760028 -7 5 C-8.50149828 8.00299655 -8.18438425 11.08476691 -8.1875 14.375 C-8.19974609 15.04789063 -8.21199219 15.72078125 -8.22460938 16.4140625 C-8.23554802 20.11861843 -8.04027865 22.85490643 -6 26 C-2.535 25.505 -2.535 25.505 1 25 C1.99 21.535 1.99 21.535 3 18 C1.02 18 -0.96 18 -3 18 C-3 17.01 -3 16.02 -3 15 C-0.03 15 2.94 15 6 15 C6 19.62 6 24.24 6 29 C4.68 28.67 3.36 28.34 2 28 C1.01 28.66 0.02 29.32 -1 30 C-4.25476932 30.34625206 -6.30423679 30.3478816 -9.25 28.875 C-13.00735241 24.84926528 -13.29374365 19.73304189 -13.3125 14.4375 C-13.32925781 13.34308594 -13.34601562 12.24867187 -13.36328125 11.12109375 C-12.86212378 6.8154505 -11.21790365 4.21790365 -8.1875 1.1875 C-5.1472735 -0.46290867 -3.42050168 -0.54728027 0 0 Z " fill="#E2E2E2" transform="translate(16,9)"/>
<path d="M0 0 C4.62 0 9.24 0 14 0 C14.08085714 3.91707941 14.14043614 7.83249359 14.1875 11.75 C14.21263672 12.86117188 14.23777344 13.97234375 14.26367188 15.1171875 C14.27333984 16.18710937 14.28300781 17.25703125 14.29296875 18.359375 C14.3086792 19.34389648 14.32438965 20.32841797 14.34057617 21.34277344 C13.94484801 24.43030414 13.12929913 25.76507321 11 28 C8.01918697 29.05398914 5.14597587 29.2498609 2 29 C-0.5625 27.25 -0.5625 27.25 -2 25 C-2 24.01 -2 23.02 -2 22 C-1.01 22 -0.02 22 1 22 C1.66 22.99 2.32 23.98 3 25 C5.5 25.5 5.5 25.5 8 25 C10.05127844 21.92308234 10.27260872 21.06355001 10.4140625 17.55078125 C10.47207031 16.27944336 10.47207031 16.27944336 10.53125 14.98242188 C10.5621875 14.10134766 10.593125 13.22027344 10.625 12.3125 C10.66367187 11.41982422 10.70234375 10.52714844 10.7421875 9.60742188 C10.83639651 7.40528622 10.91928494 5.20267153 11 3 C7.37 3 3.74 3 0 3 C0 2.01 0 1.02 0 0 Z " fill="#F3F3F3" transform="translate(31,10)"/>
<path d="M0 0 C2.97 0 5.94 0 9 0 C9 4.62 9 9.24 9 14 C8.01 14 7.02 14 6 14 C4.94595055 10.01803543 5.15901344 7.01804691 6 3 C4.02 3 2.04 3 0 3 C0 2.01 0 1.02 0 0 Z " fill="#ECECEC" transform="translate(13,24)"/>
<path d="M0 0 C0.99 0 1.98 0 3 0 C3.66 0.99 4.32 1.98 5 3 C7.80561762 3.28056176 9.46578263 3.26710868 12 2 C12.33 3.32 12.66 4.64 13 6 C9.98745024 6.59221064 7.07556269 7.04234854 4 7 C1.4375 5.25 1.4375 5.25 0 3 C0 2.01 0 1.02 0 0 Z " fill="#E1E1E1" transform="translate(29,32)"/>
<path d="M0 0 C2.93447681 -0.34934248 5.14367502 -0.51495218 7.734375 1.04296875 C9.375 2.375 9.375 2.375 12 5 C12 5.66 12 6.32 12 7 C9.03824877 6.38722388 7.61941217 5.74627478 5 4 C3.0103005 3.60986284 1.00980131 3.26797351 -1 3 C-0.67 2.01 -0.34 1.02 0 0 Z " fill="#E8E8E8" transform="translate(10,9)"/>
</svg>
